<?xml version="1.0" standalone="no"?><!DOCTYPE svg PUBLIC "-//W3C//DTD SVG 1.1//EN" "http://www.w3.org/Graphics/SVG/1.1/DTD/svg11.dtd"><svg t="1693826810481" class="icon" viewBox="0 0 1024 1024" version="1.1" xmlns="http://www.w3.org/2000/svg" p-id="6251" xmlns:xlink="http://www.w3.org/1999/xlink" width="200" height="200"><path d="M512 22C241.38 22 22 241.38 22 512s219.38 490 490 490 490-219.38 490-490S782.62 22 512 22z m259.66 369.85L481.12 682.38c-13.87 13.87-36.36 13.87-50.23 0L252.34 503.83c-13.87-13.87-13.87-36.36 0-50.23 13.87-13.87 36.36-13.87 50.23 0l153.44 153.44 265.42-265.42c13.87-13.87 36.36-13.87 50.23 0 13.87 13.87 13.87 36.36 0 50.23z" fill="#5ed698" p-id="6252"></path></svg>