<?xml version="1.0" standalone="no"?><!DOCTYPE svg PUBLIC "-//W3C//DTD SVG 1.1//EN" "http://www.w3.org/Graphics/SVG/1.1/DTD/svg11.dtd"><svg t="1689168353770" class="icon" viewBox="0 0 1194 1024" version="1.1" xmlns="http://www.w3.org/2000/svg" p-id="5040" xmlns:xlink="http://www.w3.org/1999/xlink" width="233.203125" height="200"><path d="M739.567407 255.989334c15.729122 0 28.400594-12.799467 28.400594-28.400595v-85.329778c0-15.729122-12.799467-28.400594-28.400594-28.400594s-28.400594 12.799467-28.400595 28.400594v85.329778a28.258378 28.258378 0 0 0 28.400595 28.400595zM71.065483 712.10544c-7.736567 0-14.264295 6.54195-14.264294 14.264295 0 7.736567 6.54195 14.264295 14.264294 14.264294h255.989334c7.736567 0 14.264295-6.54195 14.264295-14.264294 0-7.736567-6.54195-14.264295-14.264295-14.264295h-255.989334m0-56.801189h255.989334c39.066817 0 71.065483 31.998667 71.065484 71.065484s-31.998667 71.065483-71.065484 71.065483h-255.989334C31.998667 797.435218 0 765.436551 0 726.369735s31.998667-71.065483 71.065483-71.065484z" fill="#face05" p-id="5041"></path><path d="M583.044151 56.929184c-7.736567 0-14.264295 6.54195-14.264295 14.264294 0 7.736567 6.54195 14.264295 14.264295 14.264295H895.962668c7.736567 0 14.264295-6.54195 14.264295-14.264295C910.226963 63.471133 903.685013 56.929184 895.962668 56.929184H583.044151m0-56.929184H895.962668c39.066817 0 71.065483 31.998667 71.065484 71.065483S935.029485 142.116745 895.962668 142.116745H583.044151C543.977334 142.116745 511.978668 110.118078 511.978668 71.065483s31.998667-71.065483 71.065483-71.065483z m355.583406 341.319112V568.907851h199.06015l0.142217-0.142216V341.461328s0-0.142216-0.142217-0.142216H938.627557m-65.19195-56.786968h264.237879c31.344472 0 56.943405 25.598933 56.943405 56.929184V568.907851c0 31.33025-25.598933 56.929184-56.929184 56.929184H873.435607a122.803772 122.803772 0 0 0 8.248545-44.94035v-251.438412a121.779815 121.779815 0 0 0-8.248545-44.94035z m-613.05179 56.801189c-42.792884 0-83.054317 16.795745-113.588156 47.329584-30.533839 30.533839-47.329583 70.795272-47.329583 113.602378V654.237629h170.659556v-4.792689A80.63664 80.63664 0 0 1 350.648501 568.907851h189.716539V341.319112H260.398039m0-56.801189h345.187395a122.803772 122.803772 0 0 0-8.262767 44.94035v251.438412c0 15.871339 2.801661 31.074261 8.262767 44.94035H350.790717c-13.083899 0-23.750122 10.666222-23.750121 23.735899v31.458245a30.27785 30.27785 0 0 1-30.121412 30.149855H76.526589A33.918587 33.918587 0 0 1 42.664889 677.290891v-175.068261c0-119.717678 97.987028-217.718928 217.73315-217.718929z" fill="#face05" p-id="5042"></path><path d="M670.635168 255.989334a73.184506 73.184506 0 0 0-68.534033 47.998l-0.127995 0.5262-0.142216 0.540422a66.656778 66.656778 0 0 0-4.394484 24.404317v251.438412c0 8.675194 1.464828 16.809966 4.408705 24.404316l0.142217 0.540422 0.113773 0.526201a73.312501 73.312501 0 0 0 68.548255 47.998h137.722261a73.184506 73.184506 0 0 0 68.519812-47.998l0.142216-0.526201 0.142216-0.540422c2.915434-7.466356 4.380262-15.729122 4.380262-24.390095V329.458273c0-8.675194-1.464828-16.809966-4.394483-24.404317l-0.142216-0.540422-0.127995-0.5262a73.312501 73.312501 0 0 0-68.519812-47.998h-137.736483m0-56.801189h137.736483c55.720345 0 103.860561 35.596739 121.993139 85.329778 5.461106 13.994084 8.262767 29.069011 8.262767 44.94035v251.438412a122.291793 122.291793 0 0 1-8.262767 44.94035c-18.274794 49.733039-66.272794 85.329778-121.993139 85.329777h-137.736483c-55.734567 0-103.860561-35.596739-121.993139-85.329777a122.803772 122.803772 0 0 1-8.262767-44.94035v-251.438412c0-15.871339 2.801661-31.074261 8.262767-44.94035 18.260572-49.861034 66.272794-85.329778 121.993139-85.329778zM255.989334 967.156146c15.729122 0 28.400594-12.799467 28.400594-28.400594v-85.329778c0-15.729122-12.799467-28.400594-28.400594-28.400594s-28.400594 12.799467-28.400595 28.400594v85.329778c0 15.601128 12.65725 28.400594 28.400595 28.400594z m-85.329778 56.801189c15.729122 0 28.400594-12.799467 28.400594-28.400594v-56.929184c0-15.729122-12.799467-28.400594-28.400594-28.400594s-28.400594 12.799467-28.400595 28.400594V995.556741c0 15.729122 12.65725 28.400594 28.400595 28.400594z m-85.329778-56.801189c15.729122 0 28.400594-12.799467 28.400594-28.400594v-56.929184c0-15.729122-12.799467-28.400594-28.400594-28.400594s-28.400594 12.799467-28.400594 28.400594v56.929184c0 15.601128 12.65725 28.400594 28.400594 28.400594z" fill="#face05" p-id="5043"></path></svg>